<svg viewBox="0 0 1328 808" width="1328mm" height="808mm" version="1.1" xmlns="http://www.w3.org/2000/svg" desc="Created with a heavily modified imagetracer.js version 1.2.6custom" ><path fill="none" stroke="black" stroke-width="0.5" opacity="1" d="M 552 12 L 550 16 L 528 38 L 528 182 L 528 188 " /><path fill="none" stroke="black" stroke-width="0.5" opacity="1" d="M 812 64 L 810 68 L 728 150 L 728 238 L 580 386 L 576 388 " /><path fill="none" stroke="black" stroke-width="0.5" opacity="1" d="M 168 80 L 170 84 L 232 146 L 232 152 " /><path fill="none" stroke="black" stroke-width="0.5" opacity="1" d="M 928 108 L 928 114 L 928 270 L 924 274 L 942 292 L 944 296 " /><path fill="none" stroke="black" stroke-width="0.5" opacity="1" d="M 112 124 Q 136.3 139.9 148 166 L 148 430 Q 169.1 449.8 168 496 " /><path fill="none" stroke="black" stroke-width="0.5" opacity="1" d="M 528 296 L 530 300 L 560 330 L 560 374 Q 561 381 576 388 " /><path fill="none" stroke="black" stroke-width="0.5" opacity="1" d="M 944 296 L 942 300 L 910 332 L 646 332 L 584 394 L 580 396 " /><path fill="none" stroke="black" stroke-width="0.5" opacity="1" d="M 944 296 Q 951 296 954 296 L 1178 520 L 1180 524 " /><path fill="none" stroke="black" stroke-width="0.5" opacity="1" d="M 480 308 L 478 312 L 390 400 L 266 400 L 172 494 L 168 496 " /><path fill="none" stroke="black" stroke-width="0.5" opacity="1" d="M 576 388 Q 574 396 580 396 " /><path fill="none" stroke="black" stroke-width="0.5" opacity="1" d="M 580 396 Q 580 417.8 580 428 " /><path fill="none" stroke="black" stroke-width="0.5" opacity="1" d="M 580 428 L 584 430 L 702 548 L 774 548 L 928 702 L 932 704 " /><path fill="none" stroke="black" stroke-width="0.5" opacity="1" d="M 580 428 L 576 430 L 536 470 L 536 650 L 536 656 " /><path fill="none" stroke="black" stroke-width="0.5" opacity="1" d="M 168 496 L 168 502 L 142 528 L 140 532 " /><path fill="none" stroke="black" stroke-width="0.5" d="M256.8880615234375,16.725357055664062C-111.8738784790039,207.18478393554688,-22.722640991210938,507.05712890625,147.47518920898438,535.4234619140625C317.67291259765625,563.7896728515625,913.3652954101562,810.981689453125,974.1502075195312,802.8770751953125C1034.93505859375,794.7724609375,795.8477172851562,531.3711547851562,795.8477172851562,531.3711547851562L1087.615478515625,539.4757690429688C1087.615478515625,539.4757690429688,1569.842529296875,482.7431640625,1148.400390625,340.9116516113281C726.958251953125,199.08013916015625,1176.766845703125,195.02783203125,1176.766845703125,195.02783203125C1176.766845703125,195.02783203125,641.8591918945312,-11.64093017578125,605.3883056640625,0.5160369873046875C568.9172973632812,12.673049926757812,256.8880615234375,16.725357055664062,256.8880615234375,16.725357055664062Z"></path><path fill="none" stroke="black" stroke-width="0.5" d="M504.08001708984375,182.870849609375C418.98114013671875,158.556884765625,232.57403564453125,150.45220947265625,232.57403564453125,150.45220947265625C232.57403564453125,150.45220947265625,313.62066650390625,308.4930114746094,402.7718505859375,312.54534912109375C491.92303466796875,316.59765625,710.7486572265625,235.55108642578125,690.4872436523438,231.498779296875C670.2255859375,227.44647216796875,504.08001708984375,182.870849609375,504.08001708984375,182.870849609375Z"></path></svg>